<svg xmlns="http://www.w3.org/2000/svg" viewBox="0 0 88 88"><title>Artboard-15</title><g id="Invoice"><path d="M28,75A10,10,0,0,1,18,85H70A10,10,0,0,0,80,75Z" style="fill:#202021"/><path d="M26,74V73H64V3.9165a1,1,0,0,0-1.6641-.7476l-6.0918,5.41-6.0919-5.41a1,1,0,0,0-1.328,0l-6.0879,5.41-6.08-5.4092a1,1,0,0,0-1.33,0L29.2422,8.5786l-6.084-5.4092a.9994.9994,0,0,0-1.3281,0l-6.083,5.4087L9.6641,3.1694A1,1,0,0,0,8,3.9165V74a9,9,0,0,0,18,0ZM55,62H53a1,1,0,0,1,0-2h2a1,1,0,0,1,0,2Zm0-6H53a1,1,0,0,1,0-2h2a1,1,0,0,1,0,2Zm0-6H53a1,1,0,0,1,0-2h2a1,1,0,0,1,0,2ZM45,28h8a1,1,0,0,1,0,2H45a1,1,0,0,1,0-2ZM34.6709,29.6943A3.8988,3.8988,0,0,1,35,22.2V21.0835a1,1,0,0,1,2,0V22.2a3.9051,3.9051,0,0,1,3,3.7892,1.0408,1.0408,0,0,1-1,1.0468.96.96,0,0,1-1-.9526v-.0942a1.9,1.9,0,0,0-1-1.6665v4.04l.3291.11A3.8991,3.8991,0,0,1,37,35.9669v1.1166a1,1,0,0,1-2,0V35.9669a3.9051,3.9051,0,0,1-3-3.7892,1.0408,1.0408,0,0,1,1-1.0468.96.96,0,0,1,1,.9526,1.9767,1.9767,0,0,0,1,1.7574V29.8041ZM19,28h8a1,1,0,0,1,0,2H19a1,1,0,0,1,0-2ZM17,42H55a1,1,0,0,1,0,2H17a1,1,0,0,1,0-2Zm0,6H49a1,1,0,0,1,0,2H17a1,1,0,0,1,0-2Zm0,6H49a1,1,0,0,1,0,2H17a1,1,0,0,1,0-2Zm-1,7a1,1,0,0,1,1-1H49a1,1,0,0,1,0,2H17A1,1,0,0,1,16,61Z" style="fill:#202021"/><path d="M35,24.3228a1.8749,1.8749,0,0,0,0,3.3165Z" style="fill:#202021"/><path d="M38,32.1777a1.8848,1.8848,0,0,0-1-1.6505v3.317A1.9,1.9,0,0,0,38,32.1777Z" style="fill:#202021"/></g></svg>