<?xml version="1.0" encoding="UTF-8"?>
<!DOCTYPE svg PUBLIC "-//W3C//DTD SVG 1.1//EN" "http://www.w3.org/Graphics/SVG/1.1/DTD/svg11.dtd">
<!-- Creator: CorelDRAW -->
<svg xmlns="http://www.w3.org/2000/svg" xml:space="preserve" width="2048px" height="2048px" style="shape-rendering:geometricPrecision; text-rendering:geometricPrecision; image-rendering:optimizeQuality; fill-rule:evenodd; clip-rule:evenodd"
viewBox="0 0 2048 2048"
 xmlns:xlink="http://www.w3.org/1999/xlink">
 <defs>
  <style type="text/css">
   <![CDATA[
    .fil0 {fill:none}
    .fil1 {fill:#212121;fill-rule:nonzero}
   ]]>
  </style>
 </defs>
 <g id="Layer_x0020_1">
  <metadata id="CorelCorpID_0Corel-Layer"/>
  <rect class="fil0" width="2048" height="2048"/>
  <g id="_445070928">
   <rect id="_445072080" class="fil0" x="255.996" y="255.996" width="1536" height="1536"/>
   <rect id="_445069080" class="fil0" x="255.996" y="255.996" width="1536" height="1536"/>
   <path id="_445071480" class="fil1" d="M1414.59 738.021l0 -312.663c0,-37.2024 -15.2232,-70.9926 -39.7878,-95.4485 -24.5847,-24.476 -58.5685,-39.6697 -96.0745,-39.6697l-572.555 0c-37.4622,0 -71.4249,15.1973 -96.0024,39.6803 -24.5481,24.4512 -39.7666,58.2378 -39.7666,95.4379l0 1199.52c0,37.2083 15.2162,70.9914 39.7607,95.4414 24.5776,24.4819 58.5426,39.6768 96.0083,39.6768l572.555 0c37.5095,0 71.4957,-15.1902 96.0804,-39.6662 24.561,-24.4536 39.7819,-58.2426 39.7819,-95.452l0 -155.269 64.0016 0 0 155.269c0,54.7559 -22.4906,104.569 -58.7835,140.702 -36.2067,36.0473 -86.119,58.4174 -141.08,58.4174l-572.555 0c-54.9237,0 -104.816,-22.376 -141.008,-58.428 -36.2752,-36.1347 -58.7622,-85.9418 -58.7622,-140.692l0 -1199.52c0,-54.7406 22.4894,-104.552 58.7682,-140.688 36.1914,-36.052 86.0823,-58.4315 141.002,-58.4315l572.555 0c54.9591,0 104.868,22.3736 141.075,58.4209 36.2953,36.1347 58.7894,85.9524 58.7894,140.699l0 312.663 -64.0016 0zm-422.093 1002.46c-29.967,0 -57.1666,-12.1725 -76.9205,-31.8036 -19.8213,-19.6984 -32.0835,-46.8544 -32.0835,-76.7245 0,-29.9858 12.2492,-57.2067 32.0528,-76.9701 19.7362,-19.6996 46.9465,-31.8839 76.9512,-31.8839 29.9776,0 57.1678,12.1878 76.8827,31.8874 19.7858,19.7717 32.028,46.9878 32.028,76.9666 0,29.8618 -12.2551,57.0154 -32.0587,76.7197 -19.7327,19.6358 -46.9111,31.8083 -76.852,31.8083zm-31.9205 -77.054c8.10591,8.05631 19.3878,13.0524 31.9205,13.0524 12.4949,0 23.752,-4.99725 31.852,-13.0571 8.06575,-8.0256 13.0571,-19.1599 13.0571,-31.4693 0,-12.4677 -4.97953,-23.6752 -13.0264,-31.7162 -8.12127,-8.11536 -19.3925,-13.1362 -31.8827,-13.1362 -12.5291,0 -23.8217,5.01851 -31.9512,13.1327 -8.06221,8.04686 -13.0512,19.2579 -13.0512,31.7197 0,12.3059 5.00079,23.4425 13.0819,31.474z"/>
   <path id="_445079592" class="fil1" d="M1438.01 861.317c-49.0583,0 -92.8761,8.73072 -124.057,22.8449 -23.4449,10.611 -37.9465,22.4421 -37.9465,32.9705l0 19.05c0,10.5295 14.5028,22.3595 37.9465,32.9705 31.1811,14.1142 74.9989,22.8449 124.057,22.8449 49.0536,0 92.8702,-8.73072 124.05,-22.8449 23.4425,-10.611 37.9441,-22.441 37.9441,-32.9705l0.125197 0 0.0011811 -19.05 -0.125197 0c0,-10.5284 -14.5028,-22.3583 -37.9453,-32.9705 -31.1811,-14.1142 -74.9965,-22.8449 -124.05,-22.8449zm-150.308 -35.4048c39.0331,-17.6681 92.2205,-28.5969 150.308,-28.5969 58.0819,0 111.271,10.9287 150.301,28.5969 46.7658,21.1701 75.6957,53.2489 75.6957,91.2201l-0.125197 0 -0.0011811 19.05 0.125197 0c0,37.9713 -28.9288,70.0501 -75.6945,91.2201 -39.0296,17.6681 -92.2194,28.5969 -150.301,28.5969 -58.0878,0 -111.278,-10.9287 -150.308,-28.5969 -46.7681,-21.1689 -75.6969,-53.25 -75.6969,-91.2201l0 -19.05c0,-37.9701 28.9288,-70.0512 75.6969,-91.2201z"/>
   <path id="_445069344" class="fil1" d="M1631.81 1032.18l28.1882 0c0,37.8449 -28.3855,69.8847 -74.2737,91.095 -38.3929,17.7449 -90.6709,28.7221 -147.723,28.7221 -57.0556,0 -109.335,-10.9772 -147.73,-28.7221 -45.8906,-21.2079 -74.276,-53.25 -74.276,-91.095l28.1894 0c12.9189,11.3528 28.3146,20.4036 43.4386,27.2492 45.5481,20.6173 100.706,28.5673 150.378,28.5673 49.6701,0 104.824,-7.95119 150.37,-28.5673 15.124,-6.84567 30.5197,-15.8965 43.4386,-27.2492z"/>
   <path id="_445076856" class="fil1" d="M1631.81 1150.5l28.1882 0c0,37.8449 -28.3855,69.8847 -74.2737,91.095 -38.3929,17.7449 -90.6709,28.7221 -147.723,28.7221 -57.0556,0 -109.335,-10.9772 -147.73,-28.7221 -45.8906,-21.2079 -74.276,-53.25 -74.276,-91.095l28.1894 0c12.9189,11.3528 28.3146,20.4036 43.4386,27.2492 45.5481,20.6173 100.706,28.5673 150.378,28.5673 49.6701,0 104.824,-7.95119 150.37,-28.5673 15.124,-6.84567 30.5197,-15.8965 43.4386,-27.2492z"/>
   <path id="_445074216" class="fil1" d="M1631.81 1268.81l28.1882 0c0,37.8449 -28.3855,69.8847 -74.2737,91.095 -38.3929,17.7449 -90.6709,28.7221 -147.723,28.7221 -57.0556,0 -109.335,-10.9772 -147.73,-28.7221 -45.8906,-21.2079 -74.276,-53.25 -74.276,-91.095l28.1894 0c12.9189,11.3528 28.3146,20.4036 43.4386,27.2492 45.5481,20.6173 100.706,28.5673 150.378,28.5673 49.6701,0 104.824,-7.95119 150.37,-28.5673 15.124,-6.84567 30.5197,-15.8965 43.4386,-27.2492z"/>
   <path id="_445072800" class="fil1" d="M958.007 987.887c-49.0583,0 -92.8761,8.73072 -124.057,22.8449 -23.4437,10.611 -37.9465,22.441 -37.9465,32.9705l0 19.05c0,10.5284 14.5016,22.3595 37.9465,32.9705 31.1811,14.1142 74.9989,22.8449 124.057,22.8449 49.0536,0 92.8702,-8.73072 124.05,-22.8449 23.4425,-10.6122 37.9441,-22.441 37.9441,-32.9705l0.125197 0 0.0011811 -19.05 -0.125197 0c0,-10.5295 -14.5028,-22.3583 -37.9453,-32.9705 -31.1811,-14.1142 -74.9965,-22.8449 -124.05,-22.8449zm-150.308 -35.4048c39.0331,-17.6681 92.2205,-28.5969 150.308,-28.5969 58.0819,0 111.271,10.9287 150.301,28.5969 46.7658,21.1701 75.6957,53.2489 75.6957,91.2201l-0.125197 0 -0.0011811 19.05 0.125197 0c0,37.9713 -28.9288,70.0501 -75.6945,91.2201 -39.0296,17.6681 -92.2194,28.5969 -150.301,28.5969 -58.0878,0 -111.278,-10.9287 -150.308,-28.5969 -46.7681,-21.1689 -75.6969,-53.25 -75.6969,-91.2201l0 -19.05c0,-37.9701 28.9288,-70.0512 75.6969,-91.2201z"/>
   <path id="_445071504" class="fil1" d="M1151.82 1158.75l28.1882 0c0,37.8449 -28.3855,69.8847 -74.2737,91.095 -38.3929,17.7449 -90.6709,28.7221 -147.723,28.7221 -57.0556,0 -109.335,-10.9772 -147.73,-28.7221 -45.8906,-21.2079 -74.276,-53.25 -74.276,-91.095l28.1894 0c12.9189,11.3528 28.3146,20.4036 43.4386,27.2492 45.5481,20.6173 100.706,28.5673 150.378,28.5673 49.6701,0 104.824,-7.95119 150.37,-28.5673 15.124,-6.84567 30.5197,-15.8965 43.4386,-27.2492z"/>
   <path id="_445072776" class="fil1" d="M1151.82 1277.07l28.1882 0c0,37.8449 -28.3855,69.8847 -74.2737,91.095 -38.3929,17.7449 -90.6709,28.7221 -147.723,28.7221 -57.0556,0 -109.335,-10.9772 -147.73,-28.7221 -45.8906,-21.2079 -74.276,-53.25 -74.276,-91.095l28.1894 0c12.9189,11.3528 28.3146,20.4036 43.4386,27.2492 45.5481,20.6173 100.706,28.5673 150.378,28.5673 49.6701,0 104.824,-7.95119 150.37,-28.5673 15.124,-6.84567 30.5197,-15.8965 43.4386,-27.2492z"/>
  </g>
 </g>
</svg>
